<?xml version="1.0" standalone="no"?><!DOCTYPE svg PUBLIC "-//W3C//DTD SVG 1.1//EN" "http://www.w3.org/Graphics/SVG/1.1/DTD/svg11.dtd"><svg t="1706162160516" class="icon" viewBox="0 0 1024 1024" version="1.1" xmlns="http://www.w3.org/2000/svg" p-id="4939" xmlns:xlink="http://www.w3.org/1999/xlink" width="128" height="128"><path d="M528.39 304.9c26.78-3.13 55.86-12 66.79-35.86 16.45-35.82-8-87.62-35.47-111.28-31.22-26.93-78.68-40.55-95.35-81.54 5.48 13.47-10.56 37.4-16.93 48.37-11.55 19.92-23.93 39.1-31.77 60.88-14.92 41.42-8.32 94.14 37 112.91 15.94 6.6 33.53 8.27 50.8 8.05a246.5 246.5 0 0 0 24.93-1.53z" fill="#00AF00" p-id="4940"></path><path d="M428.8 276.65c7.84-21.78 20.22-41 31.78-60.88 6.36-11 22.4-34.9 16.92-48.37 16.67 41 64.13 54.61 95.35 81.54a114.69 114.69 0 0 1 20.4 23.81c0.69-1.2 1.34-2.43 1.93-3.71 16.45-35.82-8-87.62-35.47-111.28-31.22-26.93-78.68-40.55-95.35-81.54 5.48 13.47-10.56 37.4-16.93 48.37-11.55 19.92-23.93 39.1-31.77 60.88-11.5 31.94-10.19 70.57 11.77 95.2 0.44-1.35 0.89-2.67 1.37-4.02z" fill="#40C65C" p-id="4941"></path><path d="M500.48 319c-21 0-37.8-2.89-52.61-9-51.59-21.37-61.18-80.92-44-128.69 6.89-19.16 17-36.26 26.78-52.8 2-3.36 4-6.73 5.94-10.12 0.73-1.26 1.59-2.69 2.52-4.25 3.37-5.61 8-13.3 10.95-20.51 3.9-9.44 2.74-12.5 2.69-12.63a12.5 12.5 0 0 1 23.16-9.42C485.49 95 507.69 108.6 531.2 123c12.52 7.68 25.46 15.61 36.67 25.28 29 25 58.55 82.68 38.67 126-11 23.92-36.78 38.4-76.7 43.06a255.63 255.63 0 0 1-26.22 1.61z m27.91-14.05z m-57.73-196.12c-3.19 6.62-6.92 12.83-10.07 18.09-0.87 1.45-1.67 2.77-2.34 4-2 3.44-4 6.87-6.05 10.29-9.61 16.26-18.68 31.61-24.78 48.55-6.94 19.27-8.31 40.24-3.76 57.53 5 19.06 16.38 32.38 33.78 39.59 12.29 5.09 26.85 7.34 45.85 7.1a231.58 231.58 0 0 0 23.71-1.5c30.65-3.58 49.78-13.22 56.87-28.66 14-30.51-9.36-76.83-32.28-96.6-9.68-8.35-21.2-15.41-33.41-22.89-16.87-10.33-34.07-20.86-47.52-35.5z" fill="#4F0F34" p-id="4942"></path><path d="M564.58 244.83c13.24 54 97.32 55.55 139.82 39.84 53.47-19.77 66.6-73.37 105.21-109.38q-46.1-8-91.34-20.1c-21.83-5.81-43.73-12.37-66.27-13.19s-46.43 4.67-62.78 20.13c-19.93 18.75-31.62 54.22-24.64 82.7zM437.36 249.35a59.29 59.29 0 0 0 0.39-15.08c-2-20.87-10.87-42.73-23-59.9-23.4-33.14-61.48-19.75-93.51-7.8-36.33 13.55-71.9 33.26-111.59 34.43-1.72 0.05 20.7 50.69 24.59 55.27 12.29 14.45 29.42 26.1 46.53 34.15 40.23 18.95 91.58 22 129.68-2.73 14.95-9.69 24.37-22.51 26.91-38.34z" fill="#00AF00" p-id="4943"></path><path d="M718.27 155.19c-21.83-5.81-43.73-12.37-66.27-13.19s-46.43 4.67-62.78 20.13c-16.84 15.91-27.79 43.78-26.52 69.23a77.56 77.56 0 0 1 13.3-17.17c16.36-15.46 40.21-21 62.79-20.13s44.49 7.42 66.31 13.24q33.12 8.82 66.78 15.5c11.3-16.47 22.54-33.35 37.71-47.51q-46.07-8.04-91.32-20.1zM334.38 218.67c32-11.95 70.11-25.34 93.51 7.8A130.76 130.76 0 0 1 438 243.31a61.19 61.19 0 0 0-0.2-9c-2-20.87-10.87-42.73-23-59.9-23.4-33.14-61.48-19.75-93.51-7.8-36.33 13.55-71.9 33.26-111.59 34.43-1.5 0 15.4 38.65 22.3 51.49 36-3.63 68.87-21.36 102.38-33.86z" fill="#40C65C" p-id="4944"></path><path d="M652.51 306.19a162.76 162.76 0 0 1-40.47-5c-30.55-7.89-51.86-26-58.49-49.65-0.35-1.28-0.69-2.6-1-3.91-7.73-33.43 3.53-71.44 28-94.59 17.25-16.3 42.75-24.65 71.85-23.55 21.55 0.83 42.1 6.38 62 11.75l7.08 1.91c29.68 7.91 60 14.59 90.27 19.86a12.5 12.5 0 0 1 6.38 21.45c-13.31 12.42-23.37 27.11-34 42.66-18.7 27.28-38 55.49-75.39 69.31a163.53 163.53 0 0 1-56.23 9.76z m-5.33-151.83c-27.4 0-42.64 10.4-49.43 16.82-18 17-26.55 46.1-20.83 70.79 0.21 0.94 0.45 1.88 0.71 2.79 5.9 21.1 30.4 29.53 40.65 32.18 26.17 6.75 56.74 5.26 81.79-4 29.89-11.06 46.18-34.83 63.42-60 6.75-9.85 13.64-19.91 21.52-29.52-23.48-4.61-46.93-10-70-16.17-2.39-0.63-4.77-1.28-7.16-1.92-19.39-5.24-37.7-10.19-56.41-10.9-1.44-0.04-2.86-0.07-4.26-0.07zM346.65 317.93h-0.26a168.41 168.41 0 0 1-70.95-16.2c-14.44-6.79-34.92-18.73-50.72-37.37-1-1.16-4-4.68-16-31.61-3.05-6.84-5.82-13.33-7.8-18.26-3.38-8.4-5.24-13-2.79-18.52a12.65 12.65 0 0 1 11.12-7.47c27.77-0.81 53.53-11.54 80.81-22.89 8.73-3.63 17.76-7.39 26.78-10.75 14.68-5.48 34.79-13 53.83-13.79 23.1-1 41.34 7.8 54.26 26.09 13.88 19.65 23.07 43.67 25.23 65.9a72 72 0 0 1-0.49 18.27c-3 18.85-14.24 35-32.45 46.85-19.89 12.92-44.3 19.75-70.57 19.75zM244 248.49c10.06 11.72 25 22.58 42 30.62a143.31 143.31 0 0 0 60.34 13.82h0.22c21.43 0 41.14-5.43 57-15.72 12.28-8 19.46-18 21.36-29.84a46.89 46.89 0 0 0 0.3-11.9c-1.75-18-9.32-37.68-20.77-53.89-8-11.36-18.14-16.16-32.78-15.53-13.95 0.59-29.15 5.89-46.16 12.23-8.58 3.2-17.39 6.87-25.9 10.41-23.18 9.65-47 19.56-72.76 23.31 5.86 13.51 14.61 32.47 17.15 36.49z" fill="#4F0F34" p-id="4945"></path><path d="M669.07 304.79c5.25 40.73 70.21 70.78 104.73 80.93 38 11.19 80.75 12.59 116.74-5.94 23-11.81 41.72-33 47.11-57.93-2.17 10-40-1.78-45.66-4.28a165.31 165.31 0 0 1-46.19-30.78c-22.23-20.93-42.94-47.59-74.79-54.32-31.11-6.57-69.4 9.95-88.93 34-10.97 13.53-14.55 26.4-13.01 38.32zM327 313.6c1.31-14.61-2.29-29.42-13.6-39-7.19-6.08-16.26-9.59-25.44-11.83-31.13-7.62-71.32-5.08-101.28 6.51-28.67 11.08-39.56 33.38-60.77 52.86-11.22 10.31-24.47 15-39.56 13.76 13.34 33 59.16 54.32 92.3 59.6 49.49 7.89 110.8-7.68 138.46-52a69.76 69.76 0 0 0 9.89-29.9z" fill="#00AF00" p-id="4946"></path><path d="M677.08 325.52a76 76 0 0 1 5-6.91c19.53-24.09 57.82-40.61 88.93-34 31.85 6.72 52.56 33.38 74.79 54.31a165.55 165.55 0 0 0 46.2 30.76 100.51 100.51 0 0 0 9.82 3.31c17.66-12.31 31.36-30.42 35.84-51.14-2.17 10-40-1.78-45.66-4.28a165.31 165.31 0 0 1-46.19-30.78c-22.23-20.93-42.94-47.59-74.79-54.32-31.11-6.57-69.4 9.95-88.93 34-11 13.52-14.55 26.36-13 38.28a50 50 0 0 0 7.99 20.77zM124.31 375.64c0.54-0.46 1.07-0.91 1.6-1.4 21.21-19.48 32.1-41.77 60.77-52.86 30-11.59 70.15-14.13 101.28-6.51 9.18 2.25 18.25 5.75 25.44 11.83a36.41 36.41 0 0 1 7.74 9.19A70.76 70.76 0 0 0 327 313.6c1.31-14.61-2.29-29.42-13.6-39-7.19-6.08-16.26-9.59-25.44-11.83-31.13-7.62-71.32-5.08-101.28 6.51-28.67 11.08-39.56 33.38-60.77 52.86-11.22 10.31-24.47 15-39.56 13.76 6.57 16.26 21.03 29.68 37.96 39.74z" fill="#40C65C" p-id="4947"></path><path d="M828.06 406.41a205.76 205.76 0 0 1-57.79-8.69c-39.27-11.56-107.47-43.81-113.6-91.33-2.09-16.26 3.19-32.32 15.7-47.75 23.59-29.1 67.11-45.6 101.23-38.4 29.46 6.23 50.2 27 68.5 45.39 4.22 4.23 8.2 8.23 12.27 12.06A154 154 0 0 0 897 306.14c5.12 2.26 23.57 7.25 31.23 7.25h0.17a12.5 12.5 0 0 1 21.43 11.1c-5.91 27.35-26 52.17-53.61 66.41-20 10.31-43.22 15.51-68.16 15.51zM681.47 303.2c4.13 32.06 61 60.28 95.85 70.53 40.08 11.79 78.26 10 107.5-5.06 14.47-7.45 26.15-18.49 33.47-31.19-15.44-2.19-31.12-8.37-31.36-8.47a176.74 176.74 0 0 1-49.7-33.12c-4.35-4.1-8.66-8.42-12.83-12.61-17.38-17.43-33.79-33.89-56-38.57-25.18-5.33-58.84 7.71-76.64 29.67-8.15 10.05-11.53 19.48-10.32 28.82zM203.94 410a165.72 165.72 0 0 1-85.18-23.08c-21.67-12.7-36.89-28.71-44-46.31a12.5 12.5 0 0 1 12.62-17.14c11.51 1 21.34-2.49 30.08-10.51a231.35 231.35 0 0 0 17-17.95c12.42-14.1 25.27-28.68 47.71-37.36 32.34-12.51 75-15.25 108.76-7 12.77 3.12 22.77 7.85 30.55 14.43 13.44 11.38 19.82 29 18 49.65a82 82 0 0 1-11.74 35.45c-14.45 23.14-37.84 40.69-67.64 50.76a176.55 176.55 0 0 1-56.16 9.06z m-96.09-63.58c14.27 16 40.34 31.6 72.77 36.77a152.24 152.24 0 0 0 71.44-5.92c16.92-5.72 40.1-17.36 54.45-40.32a57.25 57.25 0 0 0 8-24.44c0.64-7.13 0.29-20.28-9.23-28.34-4.75-4-11.41-7.05-20.33-9.23-28.65-7-66.34-4.59-93.8 6-16.74 6.47-26.58 17.64-38 30.57a252.15 252.15 0 0 1-18.85 19.84 64.24 64.24 0 0 1-26.45 15.04zM327 313.6z" fill="#4F0F34" p-id="4948"></path><path d="M508 943.78a132.48 132.48 0 0 0 21.44 4c40.22 4 74.18-18.34 102-44.55 48.84-46 87.42-101.54 124.3-157.45C809.32 664.43 861.9 575.47 861 478.3c-0.14-15.33-1.69-30.87-7.23-45.19C814.3 331 706 298.91 607.72 280.48c-82.11-15.4-168-9.1-247.77 15.35-62.09 19.05-123.5 52.85-155.09 109.17-25.44 45.32-28.45 100.66-16.86 151.25s36.83 97.12 65.29 140.67a974.58 974.58 0 0 0 180.74 206c20.85 17.81 46.42 33.45 73.97 40.86z" fill="#F10000" p-id="4949"></path><path d="M861 478.3c-0.14-15.33-1.69-30.87-7.23-45.19C814.3 331 706 298.91 607.72 280.48a501.53 501.53 0 0 0-124.22-7.3 489.88 489.88 0 0 1 58.51 7.3C640.26 298.91 748.59 331 788 433.11c5.54 14.32 7.09 29.86 7.23 45.19 0.92 97.17-51.66 186.13-105.31 267.46-36.88 55.91-75.46 111.42-124.3 157.45-17.78 16.77-38.08 31.93-60.92 39.64 1.07 0.32 2.13 0.64 3.21 0.93a132.48 132.48 0 0 0 21.44 4c40.22 4 74.18-18.34 102-44.55 48.84-46 87.42-101.54 124.3-157.45C809.32 664.43 861.9 575.47 861 478.3z" fill="#C60A0A" p-id="4950"></path><path d="M499.78 902.87A974.86 974.86 0 0 1 319 696.92c-28.46-43.55-53.66-90.08-65.29-140.67S245.13 450.32 270.57 405c31.59-56.29 93-90.09 155.09-109.14a539.69 539.69 0 0 1 123.55-22.65c-63.73-4.11-128.3 4-189.26 22.65-62.09 19.02-123.5 52.82-155.09 109.14-25.44 45.32-28.45 100.66-16.86 151.25s36.83 97.12 65.29 140.67a974.58 974.58 0 0 0 180.74 206c20.81 17.86 46.38 33.5 73.88 40.91a132.48 132.48 0 0 0 21.44 4 97 97 0 0 0 41.06-4.91c-26.24-7.8-50.63-22.92-70.63-40.05z" fill="#F44545" p-id="4951"></path><path d="M281.27 749.87q-0.61 0-1.23-0.06a12.16 12.16 0 0 1-1.21-0.18 12.64 12.64 0 0 1-2.34-0.71 12.41 12.41 0 0 1-2.16-1.15c-0.34-0.23-0.67-0.47-1-0.73s-0.62-0.54-0.91-0.82a12.6 12.6 0 0 1-3.66-8.84c0-0.41 0-0.83 0.06-1.23s0.1-0.82 0.18-1.22a12.07 12.07 0 0 1 0.72-2.33 12.37 12.37 0 0 1 1.14-2.16c0.23-0.34 0.48-0.67 0.73-1a11.94 11.94 0 0 1 0.83-0.91 12.51 12.51 0 0 1 17.68 0 11.81 11.81 0 0 1 0.82 0.91 11.45 11.45 0 0 1 0.73 1 12.41 12.41 0 0 1 1.15 2.16 12.78 12.78 0 0 1 0.71 2.33 10 10 0 0 1 0.19 1.22c0 0.4 0.06 0.82 0.06 1.23a12.64 12.64 0 0 1-3.66 8.84c-0.29 0.28-0.6 0.56-0.92 0.82a11.86 11.86 0 0 1-1 0.73 12.59 12.59 0 0 1-4.5 1.86 12.615 12.615 0 0 1-2.41 0.24z" fill="#4F0F34" p-id="4952"></path><path d="M538.73 960.72q-5.28 0-10.57-0.52a145.9 145.9 0 0 1-23.47-4.35c-33.85-9.12-61.51-28.69-78.76-43.5-48.22-41.39-80.52-74.17-115.21-116.9a12.5 12.5 0 0 1 19.41-15.75c33.67 41.47 65.09 73.3 112.08 113.68 15.29 13.13 39.67 30.43 69 38.33a120.73 120.73 0 0 0 19.43 3.61c29.91 3 59.2-10.12 92.17-41.2 48.89-46.08 87.29-102 122.44-155.24 25.8-39.13 52.4-81.47 72.12-126 21.34-48.18 31.52-92.17 31.12-134.49-0.16-17-2.19-29.94-6.39-40.81-16.79-43.4-47.89-76.48-95.1-101.08-45.62-23.78-99.63-35.86-141.59-43.73-78.29-14.68-161.9-9.49-241.8 15-49.52 15.23-115.37 45.45-147.85 103.32-22.08 39.35-27.6 89.9-15.54 142.36 8.65 37.63 25.68 76.07 53.59 121a12.5 12.5 0 0 1-21.23 13.19c-29.41-47.32-47.44-88.17-56.72-128.57-13.46-58.53-7-115.42 18.1-160.19 36.53-65.09 108.43-98.45 162.33-115C440 258.2 527.78 252.78 610 268.2c103.12 19.33 214.09 53.51 255.39 160.4 5.32 13.76 7.88 29.52 8.07 49.58 0.44 46-10.44 93.34-33.26 144.85-20.46 46.18-47.71 89.58-74.11 129.61-36 54.52-75.32 111.75-126.16 159.67-34.46 32.49-67.69 48.41-101.2 48.41z" fill="#4F0F34" p-id="4953"></path><path d="M320.43 464.33a40.77 40.41 0 1 0 81.54 0 40.77 40.41 0 1 0-81.54 0Z" fill="#F44545" p-id="4954"></path><path d="M480.82 464.33a40.77 40.41 0 1 0 81.54 0 40.77 40.41 0 1 0-81.54 0Z" fill="#F44545" p-id="4955"></path><path d="M641.2 464.33a40.77 40.41 0 1 0 81.54 0 40.77 40.41 0 1 0-81.54 0Z" fill="#F44545" p-id="4956"></path><path d="M402.08 625.25a40.77 40.41 0 1 0 81.54 0 40.77 40.41 0 1 0-81.54 0Z" fill="#F44545" p-id="4957"></path><path d="M562.47 625.25a40.77 40.41 0 1 0 81.54 0 40.77 40.41 0 1 0-81.54 0Z" fill="#F44545" p-id="4958"></path><path d="M482.28 770.68a40.77 40.41 0 1 0 81.54 0 40.77 40.41 0 1 0-81.54 0Z" fill="#F44545" p-id="4959"></path><path d="M311.45 455.43a40.77 40.41 0 1 0 81.54 0 40.77 40.41 0 1 0-81.54 0Z" fill="#C60A0A" p-id="4960"></path><path d="M471.83 455.43a40.77 40.41 0 1 0 81.54 0 40.77 40.41 0 1 0-81.54 0Z" fill="#C60A0A" p-id="4961"></path><path d="M632.22 455.43a40.77 40.41 0 1 0 81.54 0 40.77 40.41 0 1 0-81.54 0Z" fill="#C60A0A" p-id="4962"></path><path d="M393.1 616.34a40.77 40.41 0 1 0 81.54 0 40.77 40.41 0 1 0-81.54 0Z" fill="#C60A0A" p-id="4963"></path><path d="M553.48 616.34a40.77 40.41 0 1 0 81.54 0 40.77 40.41 0 1 0-81.54 0Z" fill="#C60A0A" p-id="4964"></path><path d="M473.29 761.77a40.77 40.41 0 1 0 81.54 0 40.77 40.41 0 1 0-81.54 0Z" fill="#C60A0A" p-id="4965"></path><path d="M258.21 576.25a12.51 12.51 0 0 1-12.14-9.56C235.23 522.05 234.56 485.52 244 455c9.73-31.41 30.45-55.67 61.6-72.12A12.5 12.5 0 1 1 317.28 405c-25.42 13.43-41.58 32.22-49.39 57.42-8 25.69-7.13 58.79 2.48 98.37a12.53 12.53 0 0 1-12.16 15.45zM604.86 731.68q-0.61 0-1.23-0.06c-0.4 0-0.81-0.1-1.21-0.18a12 12 0 0 1-2.34-0.72 12.41 12.41 0 0 1-2.16-1.15 10 10 0 0 1-1-0.73 12 12 0 0 1-0.92-0.84 12.62 12.62 0 0 1-3.66-8.84q0-0.61 0.06-1.23a9.83 9.83 0 0 1 0.19-1.21 12.64 12.64 0 0 1 0.71-2.34 12.41 12.41 0 0 1 1.15-2.16 11.45 11.45 0 0 1 0.73-1c0.26-0.31 0.53-0.62 0.82-0.91a10.17 10.17 0 0 1 0.92-0.82 10 10 0 0 1 1-0.73 12.79 12.79 0 0 1 2.16-1.15 13.48 13.48 0 0 1 2.34-0.72c0.4-0.08 0.81-0.14 1.21-0.18a12.64 12.64 0 0 1 2.46 0 12.16 12.16 0 0 1 1.21 0.18 13.48 13.48 0 0 1 2.34 0.72 12.41 12.41 0 0 1 2.16 1.15 11.45 11.45 0 0 1 1 0.73 10.05 10.05 0 0 1 0.91 0.82c0.29 0.29 0.57 0.6 0.83 0.91s0.5 0.65 0.72 1a12.41 12.41 0 0 1 1.15 2.16 12.67 12.67 0 0 1 0.72 2.34 12.16 12.16 0 0 1 0.18 1.21q0.06 0.62 0.06 1.23t-0.06 1.23c0 0.4-0.1 0.81-0.18 1.21a12.85 12.85 0 0 1-1.87 4.5c-0.22 0.34-0.47 0.67-0.72 1s-0.54 0.62-0.83 0.91a11.81 11.81 0 0 1-0.91 0.82 11.45 11.45 0 0 1-1 0.73 12.41 12.41 0 0 1-2.16 1.15 12 12 0 0 1-2.34 0.72 12.16 12.16 0 0 1-1.21 0.18q-0.62 0.07-1.23 0.07zM665.33 730a12.58 12.58 0 0 1-8.84-3.66c-0.28-0.29-0.56-0.6-0.82-0.91s-0.5-0.65-0.73-1a12.41 12.41 0 0 1-1.15-2.16 12.64 12.64 0 0 1-0.71-2.34c-0.08-0.4-0.14-0.8-0.19-1.21s-0.06-0.82-0.06-1.23 0-0.82 0.06-1.23 0.11-0.81 0.19-1.21a12.64 12.64 0 0 1 0.71-2.34 12.79 12.79 0 0 1 1.15-2.16c0.23-0.34 0.47-0.67 0.73-1s0.54-0.62 0.82-0.91a12.59 12.59 0 0 1 10.07-3.6 12.16 12.16 0 0 1 1.21 0.18 12.85 12.85 0 0 1 4.5 1.87 11.45 11.45 0 0 1 1 0.73 11.81 11.81 0 0 1 0.91 0.82c0.29 0.29 0.57 0.6 0.83 0.91s0.5 0.65 0.73 1a13.55 13.55 0 0 1 1.15 2.16 12.64 12.64 0 0 1 0.71 2.34c0.08 0.4 0.14 0.81 0.18 1.21s0.06 0.82 0.06 1.23 0 0.82-0.06 1.23a12.16 12.16 0 0 1-0.18 1.21 12 12 0 0 1-0.72 2.34 12.37 12.37 0 0 1-1.14 2.16c-0.23 0.34-0.48 0.67-0.73 1s-0.54 0.62-0.83 0.91a11.94 11.94 0 0 1-0.91 0.83c-0.32 0.25-0.65 0.5-1 0.72a12.45 12.45 0 0 1-5.71 2.05q-0.61 0.06-1.23 0.06zM633.09 792.2q-0.62 0-1.23-0.06a10.13 10.13 0 0 1-1.21-0.19 12.64 12.64 0 0 1-2.34-0.71 12.79 12.79 0 0 1-2.16-1.15c-0.34-0.22-0.67-0.47-1-0.72s-0.62-0.54-0.91-0.83a11.81 11.81 0 0 1-0.82-0.91 11.45 11.45 0 0 1-0.73-1 12.41 12.41 0 0 1-1.15-2.16 13.48 13.48 0 0 1-0.72-2.34 12.16 12.16 0 0 1-0.18-1.21q-0.06-0.61-0.06-1.23t0.06-1.23c0-0.4 0.1-0.81 0.18-1.21a12 12 0 0 1 0.72-2.34 12.79 12.79 0 0 1 1.15-2.16 10 10 0 0 1 0.73-1 12 12 0 0 1 0.82-0.92 12.5 12.5 0 0 1 21.34 8.84q0 0.62-0.06 1.23a12.16 12.16 0 0 1-0.18 1.21 12 12 0 0 1-0.72 2.34 12.41 12.41 0 0 1-1.15 2.16 11.45 11.45 0 0 1-0.73 1 10.05 10.05 0 0 1-0.82 0.91 12.56 12.56 0 0 1-8.83 3.68z" fill="#4F0F34" p-id="4966"></path></svg>